<?xml version="1.0" encoding="UTF-8"?>
<svg id="_レイヤー_2" data-name="レイヤー_2" xmlns="http://www.w3.org/2000/svg" viewBox="0 0 160.78 113.75">
  <defs>
    <style>
      .cls-1 {
        fill: #fff;
        fill-rule: evenodd;
      }
    </style>
  </defs>
  <g id="_レイヤー_1-2" data-name="レイヤー_1">
    <path class="cls-1" d="M41.17,7.25c.79-.31,1.6-.61,2.42-.91v101.07c-.82-.3-1.63-.59-2.42-.9V7.25ZM48.61,109.12c.79.24,1.62.44,2.42.66V3.96c-.8.23-1.62.42-2.42.67v104.49ZM56.06,111.09c.8.17,1.62.3,2.42.47V2.19c-.81.16-1.62.29-2.42.46v108.44ZM72.25,57.55c0-25.53,21.16-46.56,48.54-49.71C108.93,2.89,95.17,0,80.39,0c-3.19,0-6.33.16-9.42.41v112.91c3.09.26,6.23.43,9.42.43,13.74,0,26.58-2.52,37.86-6.85-26.12-4.11-46-24.6-46-49.36ZM0,56.88c0,19.84,14.37,37.28,36.13,47.46V9.41C14.37,19.58,0,37.02,0,56.88ZM63.52,112.47c.8.12,1.6.21,2.41.31V.96c-.81.11-1.61.2-2.41.32v111.19ZM160.78,56.88c0-14.27-7.47-27.26-19.72-37.24-8.98,8.84-14.71,22.23-14.71,37.24,0,15,5.73,28.39,14.71,37.22,12.25-9.98,19.72-22.97,19.72-37.22ZM90.5,56.88c0,21.19,14.79,39.28,35.65,46.6,1.43-.71,2.85-1.42,4.21-2.19-15.43-7.45-26.19-24-26.19-43.25,0-20.18,11.81-37.37,28.42-44.26-2.05-1.25-4.22-2.41-6.46-3.51-20.85,7.33-35.63,25.42-35.63,46.61Z"/>
  </g>
</svg>