<?xml version="1.0" encoding="UTF-8"?>
<svg id="_レイヤー_2" data-name="レイヤー 2" xmlns="http://www.w3.org/2000/svg" viewBox="0 0 208.42 19.23">
  <defs>
    <style>
      .cls-1 {
        fill: none;
        stroke: #1a264b;
        stroke-width: .75px;
      }

      .cls-2 {
        fill: #1a264b;
      }
    </style>
  </defs>
  <g id="_レイヤー_1-2" data-name="レイヤー 1">
    <g>
      <g>
        <g>
          <polygon class="cls-2" points="45.19 4.48 42.99 4.48 42.99 5.67 38.8 5.67 38.8 8.79 40.61 8.79 40.61 6.9 47.88 6.9 47.88 8.79 49.73 8.79 49.73 5.67 45.19 5.67 45.19 4.48"/>
          <rect class="cls-2" x="41.3" y="7.36" width="6.08" height="1.23"/>
          <polygon class="cls-2" points="45.19 9.14 41.3 9.14 41.3 12.79 47.38 12.79 47.38 9.14 43.19 9.14 43.19 10.37 46.19 10.37 46.19 11.6 42.57 11.6 42.57 10.37 45.19 10.37 45.19 9.14"/>
          <polygon class="cls-2" points="39.18 13.52 39.18 19.18 49.35 19.18 49.35 17.76 47.38 17.76 47.38 18.61 45.19 18.61 45.19 13.91 43.38 13.91 43.38 18.61 41.03 18.61 41.03 16.99 48.07 16.99 48.07 15.8 41.03 15.8 41.03 14.14 47.38 14.14 47.38 18.41 49.35 18.41 49.35 13.52 39.18 13.52"/>
        </g>
        <polygon class="cls-2" points="62.67 5.05 60.82 5.05 60.82 9.9 57.12 9.9 57.12 11.18 60.82 11.18 60.82 17.64 58.01 17.64 58.01 18.91 65.32 18.91 65.32 17.64 62.67 17.64 62.67 11.18 66.29 11.18 66.29 9.9 62.67 9.9 62.67 5.05"/>
        <g>
          <polygon class="cls-2" points="75.06 13.02 76.45 8.79 74.54 8.79 73.16 13.02 75.06 13.02"/>
          <polygon class="cls-2" points="82.4 13.02 81.01 8.79 82.92 8.79 84.3 13.02 82.4 13.02"/>
          <polygon class="cls-2" points="83.61 4.98 73.79 4.98 73.79 6.25 77.72 6.25 77.72 15.49 73.79 15.49 73.79 16.68 77.72 16.68 77.72 19.18 79.61 19.18 79.61 16.68 83.61 16.68 83.61 15.49 79.61 15.49 79.61 6.25 83.61 6.25 83.61 4.98"/>
        </g>
        <g>
          <polygon class="cls-2" points="101.44 4.98 90.42 4.98 90.42 19.18 92.27 19.18 92.27 6.25 95.97 6.25 95.97 8.13 92.85 8.13 92.85 13.52 95.97 13.52 95.97 19.18 97.82 19.18 97.82 13.52 100.86 13.52 100.86 9.79 99.01 9.79 99.01 10.17 94.04 10.17 94.04 11.41 99.01 11.41 99.01 12.33 94.7 12.33 94.7 9.37 99.01 9.37 99.01 10.87 100.86 10.87 100.86 8.13 97.82 8.13 97.82 6.25 101.44 6.25 101.44 4.98"/>
          <polygon class="cls-2" points="94.39 18.88 95.66 15.51 93.72 15.51 92.45 18.88 94.39 18.88"/>
          <polygon class="cls-2" points="100.23 18.88 98.96 15.51 100.9 15.51 102.17 18.88 100.23 18.88"/>
        </g>
        <g>
          <rect class="cls-2" x="118.11" y="4.48" width="1.19" height="1.77"/>
          <rect class="cls-2" x="120.03" y="4.5" width="1.19" height="1.77"/>
          <polygon class="cls-2" points="109.48 4.98 117.57 4.98 117.57 19.18 109.48 19.18 109.48 17.95 115.72 17.95 115.72 6.25 109.48 6.25 109.48 4.98"/>
        </g>
        <g>
          <polygon class="cls-2" points="128.54 4.98 126.42 18.84 127.69 18.84 129.81 4.98 128.54 4.98"/>
          <polygon class="cls-2" points="131 4.98 132.89 4.98 132.89 16.26 135.74 14.79 135.74 16.87 131 19.18 131 4.98"/>
        </g>
        <polygon class="cls-2" points="145.33 4.98 153.22 4.98 149.1 19.18 147.17 19.18 150.91 6.25 145.33 6.25 145.33 4.98"/>
        <polygon class="cls-2" points="161.73 9.9 163.19 4.98 170.27 4.98 165.96 19.18 163.97 19.18 167.93 6.25 164.73 6.25 163.65 9.9 161.73 9.9"/>
        <g>
          <rect class="cls-2" x="180.9" y="4.98" width="7.47" height="1.27"/>
          <polygon class="cls-2" points="180.9 8.71 188.72 8.71 185.56 19.18 183.56 19.18 186.37 9.98 180.9 9.98 180.9 8.71"/>
        </g>
        <g>
          <rect class="cls-2" x="205.39" y="4.48" width="1.19" height="1.89"/>
          <rect class="cls-2" x="207.22" y="4.48" width="1.19" height="1.89"/>
          <polygon class="cls-2" points="197.42 4.67 204.81 4.67 200.54 19.18 198.57 19.18 202.54 5.9 197.42 5.9 197.42 4.67"/>
        </g>
      </g>
      <g>
        <polyline class="cls-1" points="7.89 9.66 5.21 9.66 2.82 18.85 .48 18.85 5.22 .38 12.37 .42 11.85 2.51 14.7 2.51 15.31 .38 22.16 .38 27.02 18.85 10.53 18.85 11.09 16.77 8.16 16.72 7.59 18.85 5.51 18.85 7.89 9.66 9.72 2.51"/>
        <polyline class="cls-1" points="10.16 .46 9.72 2.51 7.04 2.51 5.72 7.61 8.36 7.61"/>
        <path class="cls-1" d="M24.26,12.87c-.55-1.29-1.84-2.19-3.33-2.19-2,0-3.62,1.62-3.62,3.62s1.62,3.62,3.62,3.62,3.62-1.62,3.62-3.62l-2.44-.05"/>
        <path class="cls-1" d="M23.02,12.86c-.46-.66-1.22-1.1-2.09-1.1-1.4,0-2.53,1.14-2.53,2.53s1.13,2.53,2.53,2.53c1.07,0,1.99-.67,2.36-1.61"/>
      </g>
    </g>
  </g>
</svg>