<?xml version="1.0" encoding="UTF-8"?>
<svg id="_レイヤー_2" data-name="レイヤー 2" xmlns="http://www.w3.org/2000/svg" viewBox="0 0 488.87 132.98">
  <defs>
    <style>
      .cls-1 {
        fill: #231815;
      }
    </style>
  </defs>
  <g id="_レイヤー_2-2" data-name="レイヤー 2">
    <g>
      <g id="_レイヤー_1-2" data-name=" レイヤー 1-2">
        <g>
          <path class="cls-1" d="M98.67,36.96c1.21,2.57.49,8.02-.41,10.73-.76,2.93-2.09,7.85-4.12,9.96-.9,1.7-3.02,1.53-4.55,3.23-.45,1.49-.54.07-1.75,1.04.93-1.96-3.19-.84-2.52-2.91,1.12-3.47,3.54-6.7,4.53-10.22.9-3.06,1.16-5.95-.5-9.14-4.2-5.37-7.82-3.17-13.36-2.69-2.87,1.49-4.76,2.44-6.16,5.35-.5.95-.69,2.31-.58,3.4.32.21.71-.34,1.03-.62,0-.21-.26.54-.58.82l-.19-.21-.13.21c.71,1.49,2.61,1.16,3.95.95.76-1.36,2.67-2.24,2.74-3.95l-1.21-2.44c4.2-1.57,6.31,2.44,9.05,4.76-.71,1.49,1.59,1.85.13,3.06-.06,3.95-4.01,4.55-5.48,7.69-2.24.88-4.4,1.98-6.44.34-1.85-.54-2.61-.41-4.4,0-1.14-2.39-2.56-5.04-4.46-7-.13-.34.69-.69,0-1.03-.06-.13.06-.21.13-.28l-.26-.34c-.19.13-.26.41-.5.34l-.13-.21c.5-.28.32-1.08.13-1.44l.32.62c1.08-.82,1.08-2.72,1.21-3.88,1.34-2.31,3-4.01,3.82-6.53,2.56-1.83,5.63-5.3,8.77-5.56,7.46-1.98,17.91-2.59,21.92,5.91v.04Z"/>
          <g>
            <path class="cls-1" d="M56.1,43.13c-.52.13-.88.6-1.1,1.01l-.04.07v.07c-.09.5-.17,1.08-.17,1.68,0,.65.09,1.34.35,2,.07.19.11.35.11.52,0,.5-.35,1.01-1.06,1.59-.19.06-6.01,1.87-6.01,1.87.09,0-1.87.07-1.87.07-1.59.04-3.23.11-4.83.78-.58-.56-1.34-.58-2-.56h-.47v-.19h-.86c-.47-.6-.54-1.32-.58-2.13-.04-.69-.11-1.38-.45-2,0-.11.13-3.71.15-4.2.39-.21.49-.58.49-.91,0-.17-.02-.32-.04-.43,0,0-.02-.39-.02-.41.37-.32.71-.41,1.08-.54.34-.11.71-.24,1.14-.54,4.16-1.57,8.39-4.91,12.57-9.94l.04-.04v-.06c.24-.49.35-.97.35-1.46s-.11-.99-.34-1.46c-1.19-1.64-3.45-1.42-4.94-1.27l-1.1.07-.15.11c-2.46,2.37-5.8,5.56-9.27,6.79v-3.26l.34-.86c.19-.41.39-.88.39-1.38,0-.15-.07-.34-.11-.49.19-.15.45-.35.45-.35l-.04-.88h-.11l.34-.71s-.07-.11-.13-.21c.04-.04.07-.07.07-.07.19-.19.47-.49.47-.9,0-.07-.04-.17-.06-.24.06-.15.15-.3.15-.45,0-.22-.06-.41-.09-.56-.04-.15-.06-.24-.06-.32,0-.09.04-.15.13-.22l.3-.26-.22-.32s-.06-.09-.06-.13.02-.09.07-.19c.07-.13.17-.34.17-.6,0-.19-.09-.41-.26-.65.07-.22.15-.43.15-.63,0-.3-.06-.58-.09-.84-.04-.24-.07-.47-.07-.69,0-.21.04-.39.15-.6l.15-.28-.22-.22s-.09-.15-.09-.3v-.58c0-.19-.04-.41-.15-.6.09-.07.73-.58.73-.58l-.21-.37-.34-.3s-.09-.07-.15-.13c.22.07.8.28.8.28l-.45-.93c-.07-.17-.11-.35-.11-.54,0-.3.07-.62.15-.95.09-.37.19-.76.19-1.16,0-.22-.09-.45-.17-.67.24-.3.37-.63.37-.97,0-.47-.17-.91-.32-1.27l-.22-.75-.07-.17-.19-.26c-.32-.45-.76-1.06-1.47-1.12-.21-.49-.62-1.06-1.19-1.31l-.22-.09-.32.22c-.09.07-.34.24-.43.24l-.9-1.23.04,1.38h0c-.28,0-.47,0-.6-.15l-.13-.13h-.19c-.32,0-.58.11-.78.34-.28.32-.34.75-.34,1.04v.17c-.06.19-.62,1.9-.62,1.9l-.84,2.41.04.19c.07.19.09.35.09.54,0,.39-.15.76-.3,1.18-.17.47-.37.99-.37,1.59,0,.35.09.73.26,1.14-.22,1.04-.3,2.31-.37,3.66-.09,1.73-.19,3.53-.63,4.94-.32.93-.39,1.72-.49,2.72l-.09.9c-.13.21-.22.41-.22.6,0,.15.11.3.19.47-.04.15-.22.69-.22.69l-.34,1.1.19.15.04.04c-.02.09-.06.19-.06.19l-.06.56c-.04.17-.06.37-.07.6-1.19,0-1.19,1.53-1.19,2.03v.47l.47-.04c.24-.02.34.07.58.39,0,0,.17.17.3.32.04.22.11.84.11.84.07.54.17,1.04.17,1.66v.47c-.19.21-.69.76-.69.76-.63.76-1.01,1.19-1.75,1.08l-.28-.04-.15.24c-.97,1.51-2.01,2.29-3.3,2.46l-.34.04-.04.39s-.02.24-.04.34c-.07,0-.22-.04-.22-.04-.28-.07-.69-.17-1.03.07-.15.11-.24.26-.32.47-.41,0-.73.22-.95.41-.04.04-.06.02-.09.06-.09-.07-.47-.34-.47-.34,0,0-.04,0-.07-.02-.04-.21-.09-.52-.09-.52-.09-.24-.13-.41-.13-.52,0-.09.04-.17.09-.22l.15-.13v-.21c0-.49-.37-.69-.56-.78,0,0-.02,0-.04-.02.15-.28.49-.95.49-.95.75-1.4,1.51-2.84,1.51-4.27,0-.54-.15-1.08-.39-1.62.17-.24.6-.84.6-.84v-.11c.15-1.01.6-1.92,1.04-2.8.52-1.06,1.08-2.15,1.08-3.4,0-.32-.04-.65-.11-1.01-.21-.75-.26-1.49-.32-2.22s-.11-1.4-.32-2.03c.19-.35.3-.69.3-1.03,0-.45-.13-.88-.24-1.25-.11-.35-.19-.65-.19-.9,0-.26.09-.49.35-.73l.41-.35s-.63-.45-.65-.47l.13-.3c.11-.19.26-.47.26-.76,0-.06-.06-.11-.07-.17.19-.21.28-.43.28-.65,0-.41-.21-.8-.35-1.08-.13-.24-.26-.5-.26-.67v-.06l.04-.19-.11-.15c-.17-.22-.26-.58-.26-.91,0-.15,0-.3.06-.43l.15-.47-.49-.07c-.22-.04-.39-.15-.5-.3-.07-.11-.11-.24-.11-.41,0-.07,0-.15.02-.22l.04-.17-.11-.19-.52-.84c-.47-.8-.99-1.72-2.03-1.72-1.1-.21-1.7.73-2.18,1.47-.22.34-.45.65-.69.8l-.63-.63-.15.99c-.07.52-.21,1.32-.56,1.38l-.6.09.3.54c.11.22.17.37.17.5,0,.21-.13.34-.35.58-.3.3-.69.71-.8,1.44v.13l.04.11c.06.11.07.22.07.34,0,.34-.22.69-.56,1.16-.3.43-.62.88-.62,1.4,0,.09,0,.17.04.26.07.32.34.62.67.88-.07.11-.17.28-.17.47,0,.17.07.37.26.58l.24.24s.06-.04.11-.07c.07.37.26.62.63.62h.24l.13-.21h0c.11.32.17.69.22,1.04.06.49.13.93.32,1.32,0,.13.07.58.07.58.06.22.07.37.07.47,0,.17-.07.19-.22.22l-.67.15.45.54c.15.19.19.45.19.75v1.42l.02.07-.15.24c-.11.15-.32.41-.32.75,0,.09.09.19.13.28-.19.28-.32.6-.41.93-.13.39-.28.84-.49.93-.13.06-.32,0-.45-.06l-.43-.17-.15.43c-.24.71-1.14,1.19-2,1.66l-.99.56-.06.15s-.04.06-.06.11c-.06-.04-.19-.09-.19-.09-.22-.13-.54-.3-.88-.15-.17.07-.3.21-.37.34-.82,0-1.62.5-2.41,1.01-.52.32-1.06.67-1.53.8l-.13.04-.17.28-.07.09c-.15.11-.3.28-.3.54,0,.04.04.07.04.11-.04,0-.04.04-.11.06l-.5.19v.24c0,.13-.02.24-.02.37,0,1.03.6,1.83,1.16,2.59.34.45.69.91.9,1.42l.07.19.19.06c.34.11.52.39.76.71.32.47.73,1.03,1.59,1.03.11.04.49.15.49.15.75.24,1.4.45,1.77.78l.11.09s1.06.09,1.25.11c.09.04.13.13.13.35v.41c-.09.35-.19.76-.19,1.19,0,.26.06.54.13.8-.13.07-.26.15-.35.26-.32.35-.39.86-.39,1.25,0,.11,0,.21.02.3-.35.41-.43.86-.45,1.21,0,.24-.04.41-.11.56h0c-.43.07-.95.19-1.18.6-.07.13-.09.26-.09.39,0,.26.11.5.21.73.09.21.19.41.19.58v.11s-.88-.22-.88-.22l-.04.34c-.21.41-.47.47-.91.52-.32.04-.73.09-1.03.39-.15-.07-.34-.15-.56-.09l-.3.07-.04.3c-.02.19-.09.24-.52.39-.34.13-.82.32-1.06.82-.63.06-1.04.6-1.34,1.03-.19.26-.39.54-.58.63l-.13.07-.06.15c-.06.13-.11.13-.19.11l-.43-.07-.26,1.6.04.11c.86,2.15,2.87,2.35,4.5,2.52l1.29.15.34-.17c.21-.09.34-.22.41-.37.43-.04,1.55-.15,1.55-.15,0,0,.15-.13.15-.15.04.02.11.07.11.07.15.11.41.3.73.21.22-.07.35-.26.45-.47.21,0,.39.15.76.54.35.39.8.86,1.44.86h.43v-.26c.13.07.28.13.28.13v-.86c.13-.11.3-.22.3-.22.5-.39.86-.69,1.51-.62l.52.06s-.04-.49-.06-.54c.06,0,.11-.04.11-.04.07-.02.19-.07.3-.11l.13.21h.21c.88.15,2.13-.11,3.13-1.87,1.19-.49,1.59-1.55,1.88-2.41.35-1.04.58-1.59,1.53-1.59h.56l-.15-.54c-.04-.11-.04-.21-.04-.26,0-.07,0-.11.02-.13.06-.09.32-.15.52-.21.35-.07.78-.19,1.03-.56.09-.15.13-.32.13-.5.47-.15.62-.49.71-.97.45-.71,1.08-1.1,1.77-1.53.47-.3.95-.6,1.36-1.01-.04.11-.07.21-.07.35,0,.26.09.54.37.8.07.11.11.22.11.34,0,.19-.09.39-.22.69-.13.28-.3.63-.3,1.03,0,.3.15.63.43.97,0,.11-.04.24-.04.35,0,.88.41,1.55.82,2.2l.58,1.08c.13,1.1.86,1.79,1.51,2.37.41.37.82.73,1.08,1.19l.28.49s.32-.32.37-.37c.04.09.26.5.26.5h.22l1.14.15c.73.15,1.49.32,2.57.09h.09l.07-.09c.84-.67,1.64-.6,2.57-.49.69.07,1.49.15,2.33-.09,1.04-.17,2.33-.15,3.71-.13,2.72.04,5.82.09,8.04-1.55l.17-.13v-.32c1.23-.47,2.13-1.23,2.87-2.52l.09-.17-.06-.19s-.02-.07-.02-.13c0-.19.13-.35.37-.65.22-.26.47-.58.47-.95v-.09c.07-.21.5-1.32.5-1.32l.69-1.77v-2c0-1.62-.17-3.26-1.64-4.61-.5-.34-.91-.43-1.27-.35l.02.02ZM19.12,44.03v.11s0-.09-.04-.15l.04.04Z"/>
            <path class="cls-1" d="M126.91,42.07v.49l.45.06h.65c.65.06,1.4.09,1.77-.39,0,0,.02-.04.04-.04.07.22.15.45.15.45l1.51-2.16c1.04-.71,1.16-2.44,1.16-3.17v-.15c-.22-.54-.52-.65-.78-.65v-.45l-.07-.11c-.35-.54-.75-.9-1.29-1.23-.22-.45-.56-.71-.84-.9-.32-.21-.45-.3-.49-.56v-.19l-.17-.11c-.3-.22-.65-.22-.93-.24l-.34-.04-.3-.82-.49.62c-.19.26-.32.24-.71.19-.22-.04-.56-.07-.86.07-.32-.45-.47-.93-.47-1.44,0-.39.07-.78.15-1.14l.06-.26-.21-.17s-.13-.15-.13-.26c0-.13.06-.32.19-.62.11-.26.22-.58.24-.91h1.25s-.58-.37-.91-.6c.54-.54,1.16-.9,1.94-1.23.69.09,1.32-.09,1.94-.28l1.57-.34.15-.26c.11-.35.37-.47.84-.65.5-.19,1.23-.47,1.23-1.44,0-.15,0-.34-.06-.52l-.04-.19-.21-.13-.09-.17c-.06-.11-.21-.34-.45-.45-.5-1.08-1.04-1.62-2.24-2.16l-.41-.19-.17.41c-.09.22-.22.26-.65.28-.3,0-.67.02-.91.3,0,0-.06.17-.09.32-.06,0-.11-.02-.11-.02-.34-.09-.78-.22-1.14.04-.17.13-.24.32-.28.54h-.02c-.15.11-.24.17-.32.21.69-3.9,1.04-7.39,1.04-10.76,0-2.48-.19-4.93-.54-7.46v-.17l-.15-.11c-.95-.78-2.57-1.47-4.07-1.21h-.07l-.07.06c-1.16.67-1.77,1.88-1.9,2.82-.75.62-.91,1.18-.91,1.72,0,.19,0,.35.04.54,0,.19.04.35.04.54,0,.24-.04.5-.11.78-.21.41-.3.84-.3,1.23,0,.73.26,1.42.49,2.05.22.62.43,1.18.43,1.73,0,.3-.06.62-.22.93l-.04.09-.06.11-.15.69s.09.09.19.19c-.06.32-.37,1.94-.37,1.94-.54,2.84-.99,5.28-1.7,8.13v.06c-.17-.07-.39-.19-.65-.07-.17.07-.26.21-.34.35h-.3.02l-.22-.15-.3.09c-.62.37-1.18.35-1.83.32-.39-.02-.8,0-1.23.07-.04-.13-.09-.26-.22-.34-.32-.24-.71-.11-1.03,0-.11.04-.39.13-.45.09l-.24-.26-.32.13c-.67.37-1.38.47-2.13.56-.9.11-1.83.24-2.71.88-.95.32-.9,1.19-.84,1.73.02.3.06.62-.06.75l-.22.26.21.28c.45.6,1.18.63,1.73.65.69.04.99.07,1.14.47l.22.58.47-.41c.19-.17.22-.19.63.17.24.21.65.5,1.12.37.82.65,1.72.82,2.52.93.65.09,1.23.19,1.66.54l.43.35.24-.5c.09-.21.11-.22.62-.04.21.07.47.17.75.19,0,.11.04.24.09.37-.24.97-.39,1.68-.39,2.5,0,.34.06.73.11,1.12-.06,0-.62.13-.62.13l.21.52s.09.22.11.3c-.11.04-.34.07-.49.09-.43.04-.91.09-1.18.47-.09.13-.15.3-.15.47v.06c-.11.11-.26.21-.34.21l-.21-.43-.41.13c-.97.45-1.73,1.34-2.09,2.29-.71-.02-1.19.63-1.49,1.06l-.28.35c-.84,1.25-.86,2.33-.07,3,1.12,1.18,2.52.84,3.64.58l1.34-.22.17-.19s.13-.13.39-.17c.21-.04.5-.13.73-.35-.22,1.31-.34,2.72-.34,4.25,0,2.63.26,5.5.56,8.3-.07.07-.35.34-.35.34l.13.28c.09.21.13.43.13.69,0,.28-.04.6-.09.91-.04.34-.09.69-.09,1.06,0,.63.19,1.29.73,1.85.35.99,1.16,1.06,1.72,1.12.43.04.67.07.82.28l.22.34.41-.24.32-.19c.17-.07.39-.24.54-.49.09.21.24.45.58.49h.22l.15-.15c.49-.54.5-1.18.5-1.68s.04-.8.32-1.04c1.23-.47,1.29-2.07,1.29-3.13v-.41c0-.3-.21-.58-.35-.76,0,0-.02-.04-.04-.07.06-.02.11-.06.11-.06l.07-.19c.06-.22.09-.41.09-.6,0-.39-.11-.69-.21-.95-.07-.22-.15-.39-.15-.58,0-.13.04-.28.13-.47l.17-.32-.3-.22c-.17-.11-.22-.22-.22-.37,0-.11.04-.26.09-.47l.19-1.29s-.32-.09-.35-.09c0,0-.02-.04-.02-.09v-.07s.04-.07.04-.07l.3-.11v-.32c0-.11-.02-.24-.02-.35,0-1.27.24-2.8.65-4.27v-.26c0-1.38.49-2.63.97-3.86,0,0,.19-.5.35-1.01.15-.04.32-.09.32-.09.43-.13.6-.11.71-.06-.11.17-.35.54-.35.54h1.01c.19.11.39.24.39.24,0,0,.19.07.21.09l.02.04Z"/>
            <path class="cls-1" d="M154.32,44.14c-1.03.09-1.98.21-2.78-.26l-.15-.07-.17.04c-.62.13-1.12.07-1.72.02-.39-.04-.84-.07-1.32-.06.06-.5.19-1.51.19-1.51.17-1.42.34-2.89.71-4.2v-.22c-.04-.26-.09-.54-.09-.82,0-.37.07-.75.37-1.06l.13-.13v-.19c-.02-.21-.04-.43-.04-.63,0-.62.11-1.25.39-1.85.11,0,.21.04.21.04.24.07.58.15.86-.06.17-.13.22-.3.26-.49.65-.24,1.12-.82,1.47-1.27,0,0,.02-.02.04-.06.91-.5,1.92-1.08,2.44-1.79l.22-.3s-.06-.06-.11-.13c.09-.13.22-.32.22-.32v-.07c.07-.22.09-.45.09-.69,0-1.18-.67-2.29-1.44-2.97-.43-.28-.84-.22-1.16-.19-.22.04-.37.06-.43,0l-.19-.21-.26.07c-.5.15-1.31.09-2.07-.3.06-.43.24-1.7.24-1.7.17-.9.32-1.75.32-2.67,0-.28,0-.58-.06-.88,0,.04,0-.95,0-.95,0-1.25,0-2.54-.71-3.79l-.37-.58c-.32-.45-.62-.9-.62-1.32v-.47h-.47c-.37.06-.71-.11-1.04-.3-.37-.19-.76-.37-1.19-.35-.8-.54-1.55.13-2.01.56,0,0-.17.13-.34.26-.09-.09-.22-.22-.22-.22l-.8.93v.19c.06.69-.24,1.32-.56,1.98-.34.71-.69,1.44-.6,2.28l.04.34.34.04c.69.09,1.4-.37,1.96-.95,0,.11.09.26.15.39-.04.13-.11.34-.11.34-.22.63-.45,1.31-.5,2.2-.28.34-.41.65-.41.95,0,.37.13.69.24.95.07.19.15.37.15.52-.11-.04-.22-.07-.22-.07l-.21,1.68c-.19,1.55-.37,2.89-.8,4.33l-.15.19c-.3.37-1.03.5-1.55.6l-.37.07s0,.04-.04.04c-.13-.04-.26-.09-.26-.09l-.26-.09-.06.22c-.39.43-.95.5-1.62.58-.62.07-1.31.21-1.94.6-.67-.11-1.16.21-1.53.47-.28.21-.54.37-.86.37h-.21l-.13.15c-.21.22-.43.35-.63.47-.32.17-.71.39-.76.95-.13.13-.65.65-.65.65l.21.3c1.12,1.57,2.84,2.54,4.81,2.72l.73.11c.65.11,1.36.21,1.98.04.06.06.47.47.47.47l.3-.39c.17-.21.34-.21.78-.17.19.02.41.04.62,0-.06,1.12-.32,2.33-.6,3.51-.34,1.36-.67,2.76-.67,4.1,0,.34.06.67.11,1.01-1.68.56-3.43.86-5.13,1.12-1.94.3-3.94.62-5.78,1.34h-.06l-.09.11-.76.63c-.6.45-1.27.95-1.46,1.85l-.04.15.07.13c.84,1.59,2.26,3.15,3.95,4.42l.19.13s.39-.15.52-.19c.93.43,1.98.41,2.93.37h1.32l.17-.15c.28-.32.45-.26.93-.06.34.15.76.32,1.23.19l.15-.04.09-.11c.35-.49,1.1-.49,1.96-.49.65,0,1.4,0,2.07-.24l1.4-.28c.99-.22,1.92-.45,2.74-.19l.11.04.15-.04,1.81-.37,1.57-.3.04-.04c.69-.39,1.36-.28,2.16-.17.88.13,1.88.28,2.89-.34.88-.3,1.47-1.1,2.07-1.87.35-.47.69-.91,1.08-1.23l.3-.24-.19-.32c-.45-.75-.11-1.49.32-2.26l.19-.32-.07-.19c-.99-2.41-2.84-2.22-4.46-2.07l.04.11Z"/>
            <path class="cls-1" d="M257.97,41.17c0-.21.06-.39.17-.58l.28-.45-.54-.21c-.34-.11-1.66-1.27-1.81-1.6l-.04-.09c-.26-.49-.6-.69-.86-.86-.32-.21-.5-.32-.52-1.08v-.6l-.58.21c-.5.19-.82.07-1.23-.06-.43-.13-.97-.24-1.64,0-.65-.15-.82-.3-.82-.65,0-.13.02-.26.04-.45.02-.21.06-.45.06-.69,0-.09-.04-.19-.06-.28h.11v-.45c-.02-.45-.04-.91-.04-1.38,0-3.81.43-8.26.8-12.24l.39-4.2-.15-.15s-.07-.07-.13-.13c0-.11.04-.22.04-.32,0-1.51-1.42-2.09-2.71-2.59l-1.88-.88-.28.21-.24.24c-.13.11-.24.26-.35.43-.07,0-.15,0-.22.06l-.21.09-.04.22c-1.42,8.92-2.5,18.73-3.21,29.2-.11.11-.49.49-.49.49l.11.28c.07.17.09.34.09.5,0,.32-.09.65-.21,1.01l-.24,1.03.04.06c.11.39.15.78.15,1.19,0,.58-.07,1.18-.15,1.81-.07.63-.15,1.27-.15,1.9,0,.22,0,.43.04.65-.32.84-.41,1.77-.41,2.72v2.07c-.07.07-.3.3-.3.3l.07.62c.15,1.14.37,2.87,2,3.3,1.59.78,2.54-.34,3.28-1.21.47-.56.91-1.08,1.47-1.23l.3-.07.26-2.93c.17-2.13.32-4.14.86-6.08l.06-.19-.11-.17c-.15-.22-.19-.47-.19-.73,0-.49.19-1.03.32-1.44l.07-.24v-.11s-.04-.11-.04-.17c0-.21.06-.47.11-.71.06.04.13.11.13.11.43.37.9.8,1.46.78.22.24.49.37.69.43l.24.07h0s.84.13.84.13h0c.15,0,.56.19.78.28.5.22,1.08.49,1.51.22h1.32s1.21-1.87,1.31-2.03c.69-.34.9-.8.9-1.27,0-.39-.15-.78-.26-1.1-.15-.41-.26-.75-.26-1.03l.06.02Z"/>
            <path class="cls-1" d="M237.33,25.65l.24-.17-.07-.28c-.3-1.06-.71-1.72-1.29-2-.41-.21-.9-.21-1.4,0l-.17.06-.07.15c-.28.62-.78,1.04-1.34,1.53-.52.43-1.1.93-1.57,1.64l-.04.06v.07c-.06.19-.28.43-.49.67-.34.37-.71.82-.73,1.36-.06-.07-.11-.13-.11-.13l-.34.21c-.8.5-1.01.88-1.19,1.23-.17.3-.32.58-.95,1.04l-.09.07-.04.11c-.11.32-.21.35-.21.35h-.07c-.34.07-.58.26-.8.73-.73.41-.84.5-1.16,1.01,0,0-.22.34-.28.41-.09.07-.56.43-.56.43-.84.65-.88.67-1.44,1.49l-.63.9v.07c-.17.41-.6.76-1.06,1.14-.58.47-1.21,1.03-1.38,1.81-.73.58-1.34,1.25-1.94,1.92-.56.62-1.08,1.21-1.68,1.7-.52.62-1.23,1.14-1.9,1.64-.62.47-1.19.9-1.59,1.34.06-.06-2.65,1.77-2.65,1.77l-2.78,1.88c-.34.21-.43.54-.43.88,0,.22.04.47.07.65.02.13.07.34.07.45v.07l-.28.15v.32c.32,1.79,3.26,2.85,4.85,3.41l.6.22.15-.06c3.99-1.51,7.67-4.65,10.6-7.16,1.92-1.92,2.91-3.73,3.88-5.48,1.08-1.98,2.11-3.84,4.37-5.78l.07-.06,1.16-2.39c.63-1.38.76-1.66,2.82-3.69h0s.07-.19.09-.24c.02,0,.22-.06.22-.06l.99-.28-.28-.39c-.11-.26-.15-.52-.15-.75,0-.52.22-1.01.49-1.57l.39-.95c.32-.43.19-.9.09-1.18-.09-.34-.09-.35,0-.41v.06Z"/>
            <path class="cls-1" d="M199.61,25.15c0-.73-.52-1.29-.99-1.81-.45-.49-.9-.97-1.08-1.64l-.11-.45-.43.15c-.47.15-1.38-.02-2.18-.17-.82-.15-1.57-.28-2.13-.17-.09-.07-.3-.24-.3-.24,0,0-2.11.09-2.74.11-.02-.63-.13-3.08-.13-3.08l-.47.06c-.34.04-.9-.17-1.42-.37-.95-.35-2.13-.78-2.87-.06-.73.22-1.08,1.18-1.44,2.22-.26.78-.6,1.77-1.01,1.88l-.35.11.06.37v.09c0,.13-.07.19-.3.37-.21.15-.47.41-.63.76-2.24,1.12-4.59,1.62-7.05,2.13-2.26.47-4.59.97-6.83,1.98h-.06l-.04.06c-.26.21-.35.47-.35.75,0,.32.13.65.22.9.06.17.17.43.17.54v.02l-.69.35.5.37.88.6c.28.15.52.26.69.52l.15.21,3.23-.22,3.21-.21h-.11l.84-.04c.28-.04.45,0,.62.04-.63,1.25-1.25,2.71-1.9,4.27-1.12,2.69-2.29,5.45-3.56,7.28l-.06.09v.11c-.13,1.1-.52,1.7-.9,2.29-.39.62-.76,1.19-.76,2.15,0,.34.06.75.17,1.19.21,1.12.73,1.49,1.53,2.03l.15.11c.37.41.95.26,1.29.17,0,0,.22-.04.28-.06,0,.04.26.69.26.69l.49-.41c.17-.17.43-.26.71-.35.47-.15,1.06-.39,1.31-1.06.88-.19,1.31-.86,1.66-1.46.28-.49.58-.88,1.04-1.1.19.24.28.52.28.82,0,.22-.04.47-.07.76-.04.28-.07.56-.07.86,0,.56.21,1.14.78,1.68.02.15.35,2.24.35,2.24l.28,1.87.04.06c1.36,2.29,7.65,2.11,9.31,1.87h.06l.06-.02c4.74-1.9,5.41-6.32,6.08-10.61.22-1.38.43-2.69.76-3.92h.15l.07-.35c.32-1.72.93-3.45,1.59-5.3.97-2.72,1.98-5.52,1.98-8.39,0-.9-.11-1.81-.34-2.72.17-.32.26-.62.26-.9l-.11-.02ZM187.58,42.83c0,.39-.04.75-.24,1.08l-.04.07v.07c-.54,2.74-1.46,6.06-3.94,7.87-1.94-1.96-3.17-4.59-4.22-7.16.15-.28.88-1.75.88-1.75l1.62-3.41c.69-1.03,1.49-2.31,1.83-3.68l1.14-2.46c.63-1.4,1.1-2.44,2.35-4.42h0c.45-.32.75-.54,1.32-.6h.15l.11-.11c.71-.62.8-.54,1.53-.15,0,0,.45.22.75.37-.17,3.36-.3,4.31-1.57,7.63,0,.02-.06.19-.06.19-.52,1.59-.84,2.56-1.16,4.4-.37.5-.47,1.04-.47,1.53v.52Z"/>
            <path class="cls-1" d="M213.62,34.44l.21-.13,1.29-.76c.71-.39,1.46-.78,2.01-1.42l.09-.11.13-3.1-.06-.09c-1.1-2.2-3.77-3.17-5.3-3.54-.32-.17-.6-.15-.8-.11q-.22.02-.34-.11l-.26-.35-.39.32-.06.04-.22-.09c-.22-.13-.71-.35-1.18.07-1.27-.19-3.36-.21-4.7,1.51-.6.97-.22,1.53.15,2.09l.34.54.06.06c2.26,2.16,5.48,4.03,8.82,5.15l.19.06h.02Z"/>
            <path class="cls-1" d="M286.1,22.27c0-.43-.11-.84-.21-1.23-.09-.37-.19-.71-.19-1.03,0-.11,0-.21.04-.32l.04-.17-.17-.28c-.49-.86-1.31-2.29-2.93-1.94l-.28.06-.06.34h-.09c-.26-.06-.65-.15-.97.13l-.17.13v.15c-.17.02-.34.07-.45.13l-.75.34s.19.21.3.34c-.13.13-.39.28-.58.39-.47.28-.82.54-.91.88,0-.04.02-.09.02-.09l-.47,1.01-.26.63-.04.13c-.06.52-.21.95-.39,1.42-.21.54-.39,1.1-.41,1.77-.19.21-.3.45-.32.62l-.04.19-.04.04-.11.24-.3,1.03c-.19.52-.37,1.08-.39,1.59-.06.15-.39,1.1-.39,1.1l-.56,1.49.09.22s.04.09.04.15c0,.09-.04.19-.09.35-.07.19-.15.39-.15.62v.06c-.19.21-.34.49-.34.97v.04c-.11.21-.17.43-.17.63v.3c0,.13,0,.22-.04.24l-.09.04-.06.07c-.13.17-.21.41-.21.65,0,.09.06.17.07.24-.07.04-.28.17-.28.17l.06.13-.3,1.03s-.28.86-.28.9c-.17.28-.3.62-.35,1.08-.13.22-.19.45-.21.62l-.04.19-.04.04-.17.26-.28.76s-.22.6-.3.78c-.21.19-.3.43-.3.63v.32c-.07.04-.28.15-.28.15l.11.45h0l-.11.37s-.09.47-.15.71c-.28.43-.39.84-.47,1.19-.07.32-.15.6-.32.86l-.07.09v.13c-.04.34-.07.97-.22,1.23-.13.47-.22.93-.22,1.32v.13c-.34.58-.47,1.16-.58,1.72,0,0-.19.8-.22.93-.28.22-.41.47-.41.69,0,.13.02.24.04.34,0,.07.04.13.04.17,0,.06-.02.09-.07.15l-.13.13v.17c-.04.65-.24,1.25-.45,1.88l-.32,1.03c-.21.39-.24.86-.24,1.34,0,.28,0,.58.04.84l.04.73v.13l.73,1.01.04.04c.56.47.97.32,1.29.07.21.02.41,0,.56-.04l.28-.07.11-.11s.04-.04.06-.06c.11.09.19.15.22.17-.04.02-.09.06-.09.06-.04,0-.13-.04-.19-.09l.62.82s.13-.93.15-1.04l.13-.15s.07-.15.15-.28c.07,0,.13-.02.19-.04.04.02,0,.07.06.09l.32.17s.15-.19.22-.3c.15-.07.76-.02,1.1,0,.65.06.99.07,1.21-.11l.15-.11v-.19c.02-.11.11-.21.26-.35l.37-.43-.06-.13v-.07c0-.26.13-.47.32-.76.21-.32.43-.69.43-1.19v-.13l-.04-.07s-.04-.09-.04-.15c0-.11.07-.22.22-.43.15-.22.37-.52.37-.91,0-.06-.04-.13-.06-.19.19-.19.28-.39.28-.56v-.41l.09-.34v.07l.04-.07c.04-.07.09-.21.09-.35,0-.06,0-.13-.04-.21.11-.13.19-.28.19-.43s-.04-.26-.06-.34-.04-.09-.04-.13c.34-.22.41-.63.45-.91l.26-.99-.19-.04c0-.17-.11-.28-.22-.37l.39.02.24-.52h0s-.13-.06-.22-.11c.04-.04.22-.22.22-.22l.07-.13c.11-.17.28-.41.28-.75h0c.07-.11.15-.22.15-.39,0-.06-.02-.15-.04-.22l.15-.07-.07-.52v.13l.06-.07s0-.09.04-.13h.15v-.26l.09-.63v-.04.02s.04-.09.06-.13c.06-.02.67-.22.67-.22,0,0-.26-.26-.39-.39.04-.07.26-.62.32-.76l.5-.37s-.21-.07-.37-.13c.06-.09.32-.54.32-.54,0,0-.06,0-.07-.02.43-.65.45-1.36.47-2.01,0,0,0-.21.02-.39.07,0,.15.04.15.04l.06-.35.13-.8v-.04c0-.21,0-.24.22-.37l.49-.3-.58-.52s.62-.54.62-.54l-.24-.22v-.04h.13s-.04-.19-.07-.3h.02-.02v-.07c0-.13.09-.69.09-.69v-.32s-.04-.02-.04-.04c.06-.06.22-.19.22-.19.24-.17.63-.45.63-.86,0-.07,0-.15-.04-.24,0,0,0-.06-.02-.07l.15-.17s0-.06-.04-.11v-.04c.09-.17.15-.32.15-.45,0-.09-.04-.15-.06-.21,0-.07.06-.15.06-.22,0-.26-.09-.47-.17-.62,0,0-.04-.09-.06-.13l1.03-.99s-.28.04-.52.06c0-.06.04-.28.04-.28-.04-.11-.06-.22-.06-.34,0-.34.15-.63.35-1.01l.54-1.23s-.02,0-.04-.02c.02-.04.13-.19.13-.19v-.04h.02l.11-.39.21-1.14v.13s.04-.34.07-.47h.32l.06-.49v-.06l.13-.02.07-.3.35-.97c.24-.62.47-1.25.56-1.88.24-.35.35-.71.35-1.08v.09ZM274.22,36.19s.02.17.07.22l-.07-.11v-.11ZM270.33,60.54s-.02-.06-.02-.09c0-.02,0-.04.02-.06h.02l.04-.04s.11.09.19.15c-.13,0-.22.04-.24.04ZM278,48.93s-.07.07-.13.09c-.13-.06-.17-.07-.24-.11.04-.02.11-.07.11-.07h-.15v-.07c.06-.09.13-.06.22-.07,0-.02.02-.04.04-.06h.04c.07.04.13.13.13.22v.07h-.02Z"/>
            <path class="cls-1" d="M267.67,34.94l.22.22.3-.32c.76-.84,1.18-1.92,1.18-3v-.17c.09,0,.21-.02.21-.02v-.35c.07-.75.41-1.44.75-2.2l.09-.21v-.41c.09-.02.17-.06.17-.06l-.04-.35v-.11c0-.22.06-.6.24-1.23.04-.24.06-.52.06-.82,0-1.16-.3-2.61-1.42-3.36h0c-.07-.35-.26-.5-.43-.54-.15-.19-.78-.91-.78-.91l-.09-.11c-.84-.6-2.24-.6-3.12,0-.07.06-.34.15-.34.15-.34.11-.84.26-.99.8l-.07.24.21.21s-.09.17-.09.17c-.11.17-.26.39-.26.67v.17s.15.19.3.37h0c0,.41-.15.84-.32.93l-.17.09.06.13-.3,1.27h0s-.28.62-.28.62l-.22.5-.04.21v.21c0,.32-.09.67-.19,1.03-.09.37-.21.76-.21,1.16,0,.13.02.28.06.41,0,.07.04.73.04.73,0,.13.04.24.04.35,0,.15-.02.3-.09.5l-.07.21.21.3-.07.15c-.06.13-.17.32-.17.56,0,.15.07.34.19.5v.09c0,.49.24.88.45,1.18l.39.76.17.17c.43.19.93.15,1.38.11h.5c.43-.07.71-.34.9-.5h0l.09.04,1.44.13s-.09-.15-.19-.28c.07-.09.26-.34.3-.37h.04Z"/>
            <path class="cls-1" d="M307.14,35.28l-.26-.26-.34-.09-1.08.13s-1.32.19-1.51.22c-.09-.02-.19-.06-.32-.02-.04-.09-.07-.17-.07-.17l-.58.15s-.19.09-.35.17c-.07,0-2.11-.19-2.11-.19-.78-.11-1.53-.21-2.26-.19-.34-.13-.73-.11-1.08-.11h-.69c-.15-.15-.43-.41-.43-.41,0,0-.11.26-.19.43-.22.02-.28,0-.41-.11l-.58-.56-.15.8c-.11.07-.24.07-.62-.07l-.67-.21s-.04.04-.09.07c-.07-.13-.15-.26-.15-.26l-.39.3c-.11.09-.47.04-.75-.11l-.28-.15s-.26.24-.3.28h0l-.69-.21v.09c-.41.19-.62.13-1.01,0l-1.36-.22-.06.11c-.17.13-.32.11-.62.07h-.63c-.17.06-.32.15-.47.26l-.84-.9.11,1.23s.04.45.04.49c0,.13-.02.52-.02.52l-.06.6.06.35.11.41c.04.24.13.54.35.84.34,1.08.75,1.87,1.36,2.56.32.26.63.62,1.1.75l.19.06.17-.11s.07-.04.28.06c.17.07.54.21.88,0,.91.39,1.79.34,2.65.26.63-.06,1.23-.11,1.87,0,.11.04.21,0,.32-.04.15.26.45.8.45.8,0,0,.15-.65.21-.93h.76c.35.06.76.09,1.25,0,.54.15,1.06.19,1.57.19.56,0,1.08.02,1.62.22l.17.07s.26-.13.34-.17c.22.07.47.07.65.06h.39l.17-.07c.07-.06.09-.07.39.13l.37.24.11-.09s.22-.13.28-.15h.04c.97.21,1.49-.49,1.88-.97l.49-.54.04-.04.26-.75s.02-.07.04-.13c.06,0,.13,0,.19-.06.17-.11.26-.28.26-.45,0-.04,0-.09-.02-.13-.02,0-.04-.07-.04-.09.02-.11.06-.24.06-.24l.3-.52v-.07l-.09-.47s0-.06-.04-.11l.13-.06v-.39l.06-.34s.07-1.01.07-1.06c0-.04.04-.06.06-.07v-.04c0-.3-.22-.5-.37-.63l-.11.04Z"/>
          </g>
          <path class="cls-1" d="M334.92,8.66h.73c.8.49.13-.69.86.43,1.92-.56,2.95.95,4.65,1.19.56,1.36-2.41,2.16-.24,3.19-.88-.07-.71,1.12-1.51,1.19-3.12,2.16-3.99,5.52-6.16,8.39-.49,2.16-.95,4.48.39,6.55.07,4.23-1.6,7.52-.56,11.68.95,1.85-.95,3.04-.56,4.79-.88,4.16-1.44,8.15-1.92,12.7-.56,1.85-1.68,2.24-2.87,3.6-1.29.49-2.56-.49-3.12-1.68l-1.36-2.48c.07-8.47,3.99-15.75,3.28-23.99h-.17c-2.72,3.75-5.52,8.08-9.2,10.88-.49-.07-1.04-.88-1.6-1.29.24-.17.24-.39.24-.63-1.85.17-.49-1.6-1.19-2.24.63-.56.49-1.68.24-2.31-.07.17.07.24.17.39.39-1.19.71-1.68,1.75-2.56.07-.15-.07-.24-.24-.32h-.32c.88-.88-.17-2.07.15-2.87-.88-1.19,1.01,0,.78-1.36.32-.8.8-1.51,1.51-2.09,0,.17-.07.39.15.56.56-.07.73-.73.8-1.19-.17-.07-.24-.24-.39-.17,3.19-5.35,9.89-13.69,12.85-20,0-.49-.15-1.29.56-1.36.56.95,2.48-1.04,2.31.95l-.02.04Z"/>
          <g>
            <path class="cls-1" d="M338.24,37.89v-.97c-.06.34-.04.65,0,.97Z"/>
            <path class="cls-1" d="M368.7,28.28c-.02.24-.04.5-.06.78.19-.26.52-.52.06-.78Z"/>
            <path class="cls-1" d="M369.12,42.52c-2-1.36,0-2.8-.56-4.65l-.24.24c-.17,0-.24-.07-.32-.24.43-2.54.49-6.29.65-8.82-.04.06-.07.13-.09.19-.24-.32-.56-.32-.8-.56.63-.39.32-1.29.39-1.92.56-1.44.17-2.87-.39-3.99.24-4.72-.17-10.63-2.48-15.04-.88-1.51-2.97-1.04-4.65-1.12-2.07,1.29-4.72,1.36-6.72,2.87-1.68,2.56-2.56-.73-4.16-1.12-1.19,2.97-3.04,5.67-4.48,8.64l.63-.63c.39,1.12-.49,2.16-.95,3.12-.15.88-1.68.71-1.19,1.92-.8.56.07,1.51-.97,1.68v.95c-.56.49-.39,1.51-1.12,1.6-.56,2.72-2.8,5.84-2.48,9.35.07,1.6-.17,2.87-.63,4.4-.06-.37-.24-.91-.32-1.51v2.71c.73-.17.95.88.56,1.36.63,1.36,2.07,1.6,3.28,2.24.32.24.56.32.73-.15l.39.39c.8.24.73-.49,1.36-.56.8.49.8,2.41.71,3.43-3.75.8-7.28,2.56-11.27,2.48l2.31,1.75c1.75,2.48,4.31,1.29,6.72,1.12l-1.92,1.75c-1.12,2.07-4.09,2.95-5.43,4.96-.39,1.04,0,2.16.39,3.04,4.23-1.04,7.35-3.68,11.12-5.91,2.31-2.31,6.16-1.75,8.32-3.43,1.85,2.97,4.48,7.59,8.64,7.67,2,.8,3.51-1.04,4.79-2.31.07-.88-1.12-1.44-.39-2.31-.56-.63-.49-1.6-1.36-2.09-2.63-2.16-5.52-4.48-8.64-5.99.24-.73,1.12-.07,1.51-.56,1.44-.24,3.53-1.12,4.65,0,2.72-1.12,5.84-2.48,9.03-2.48,1.12-.39,1.68-1.29,1.68-2.48-1.85-.56-4.48-.56-6.32,0l.02.02ZM351.84,36.75c-1.92,1.36-3.43,3.75-5.6,4.79-.24-1.19,1.19-2.97.39-4.23,1.6-.56,3.6-.39,5.2-.95v.39ZM354.88,41.71c.56-.95,1.29-2.07,2.31-2.63.39.56.8,1.12,1.19,1.68-.95.88-2.31.63-3.53.95h.02ZM364.71,41.55c-2.41-.63-4.48-2.97-5.99-5.04.88-1.44,3.28-2.48,2.56-4.4-.95-2.16-3.6-1.19-4.79-3.04,1.85-1.6,4.16-3.92,5.76-5.75.39-1.44-.63-2.31-1.36-3.28-2.48-1.29-5.52-1.68-8.08-.39-1.04.32-1.68,1.6-2.72,2.16.39-3.84,3.84-6.72,6.55-9.27,1.19.17,3.43-2.41,3.68.39,3.68,8.23,3.75,17.91,5.11,27.11-.17.49-.24,1.12-.73,1.51h.02Z"/>
          </g>
          <path class="cls-1" d="M427.02,56.71c.07-5.11-6.04-5.56-9.61-7.11-4.03-.9-5.9-5.56-9.68-6.81-.47-1.32-2.03.26-1.57-.99.22-.75,1.47-.75,2.01-.67,4.81-.76,7.2.34,12.65.07.69-.6,2.46-3.81,2.07-5.06-.69-1.27-2.09-1.62-3.41-1.92-1.23-.6-3.1,1.59-3.95.26-3.1-.15-6.17-.84-9.38-.11-.69-.9.47-2,.32-3.19-1.01-1.04-1.94.15-3.1,0-.93-.52-2.33-.3-3.02-.9.22-.07.32-.37.54-.37-.22-.37,0-.97.22-1.4.39.3.93.45,1.32.9,1.4.82,1.62-1.4,2.95-1.4.76,1.18,1.4,2.59,2.8,3.41.62.37,1.4,0,1.87-.37,1.55-1.32,1.32-3.41,2.24-4.96l-.22-.22c.93-1.55.47-3.64,1.16-5.34,3.1,3.92,6.51,10,12.09,11.17.93,0,2.39-2.97,3.15-3.12.32-3.49-2.39-4.68-4.4-7.57-2.41-1.27-3.95-3.4-6.51-4.27,1.4-1.03,1.94-1.96,3.58-2.63.69-.15.69-1.1,1.47-1.1,1.4-.95.3-2.76-.63-4.53-1.08-1.04-1.55-3.12-3.17-3.04-.32,1.18-1.55,1.92-1.87,3.04-.54.97-1.4,1.77-1.47,2.82-1.47,1.12-1.7,3.12-2.8,4.29-.47-2.52.15-4.66-1.32-6.73-1.62-.45-3.34-.67-5.19-.52-1.08.67-2.09,1.47-3.41,1.77-.39-.3-.62-.52-.69-1.12,1.4-2.59,4.89-4.81,5.35-7.48-1.16.45-4.96-1.36-6.21-1.51-1.4,2.07-2.07,1.34-2.93,3.64-.15.9-3.15,2.95-2.93,3.9l-1.66,1.08c-.54,1.04-1.47-.45-2.01.6l.15.15-1.32,1.25c-1.55,3.04,2.87,3.92,1.32,6.88-.86-1.32-1.79-2.15-2.95-3.34-.69-.82-2.5-3.77-4.05-3.84-2.01-.3-2.87,1.42-4.96,2.24,1.94,1.27,3.58,2.13,4.51,3.92-2.09,4.51-6.44,8.53-6.36,13.47.62,1.32,2.26,1.55,3.41,2.37.78.3.69-.6,1.08-.9.32-.15,1.01,0,.93.15.47-.15,1.01-.9,1.47-.52,2.01-2.89,4.81-4.22,7.28-6.73.76,1.62.62,3.79,2.24,4.96-.15.07-.22.22-.39.15.62.97,2.16.67,2.41,1.77,1.25-.45,2.26.22,3.34-.52.39.07.69.45.54.9-.62.45-.22,1.12.39,1.25.47.9-1.19,1.62-1.34,2.5-5.11,1.4-9.2,1.34-14.38,2.52-1.32.6-3.25.22-4.4,0,.32,1.85-.69.88-1.47,1.68.93,1.62-.84,3.94,1.18,3.94,1.18,1.4,2.01,1.14,4.1.84l3.53-.45c.15-.15.22-.45.54-.37.39.82,1.62.37,2.24,0,1.62.67,3.25-.52,4.65-.52-1.08,2.59-3.56,4.66-5.58,6.88v.9c-.93,1.18-2.33,2.44-3.41,3.19l-.15-.15c-2.33,2.59-4.87,3.62-7.42,5.91l.22.22c-.15.75-1.7.97-1.16,1.55.39-.07.86-.52,1.16-.3v.52c.93.37,2.56.45,3.4.07,3.41-2.67,6.44-1.7,9.53-5.17,1.87-.9,3.49-2.97,5.58-2.82-.07,3.41-.47,6.73-.3,10.3-.15,1.19,1.4,1.62.93,2.67l3.34,1.62c.76-.22,1.7-1.12,2.41-.52l2.28-3.41c-.54-3.64.3-8.15.37-11.47.54-.52-.32-2.29.78-1.92,5.5,6.29,13.25,8.88,20.84,10.3,1.32-1.77-.93-2.97-1.16-4.59l.04-.02ZM406.48,26.06c-.39.3-1.08.07-1.47-.22l1.87-2.44c.47.75.07,1.85-.39,2.67ZM403.14,15.04c.39-1.18,1.94-1.92,3.17-2.29,1.23.52.76,2.07,1.08,3.17-1.77,1.49-4.89-.22-5.35,2.82h-.22c.22-.6-.47-3.19,1.32-3.71v.02Z"/>
          <path class="cls-1" d="M399.11,32.95h-.93c.32-.07.47-.52.93-.37v.37Z"/>
          <path class="cls-1" d="M481.4,20.41c1.12-2.41,3.04-3.92,4.16-6.31.63-2.09,2.87-3.6,2.56-6.16l-.39-.32c-2.8.07-4.4-3.36-7.13-1.75-.95.63-1.81,1.12-2.29,1.92-3.75,1.36-8.47,1.6-12.07,3.28l-.32-.39c-.49,0-.95-.07-1.19.39,0,.73,2.71,3.51,3.25,3.99l-1.19,1.92c1.36,6.47,1.36,12.31,1.53,19.03l-.32.39c.56.88.95,1.85,1.68,2.65.24,4.4-1.04,8.23-1.12,12.48-2,8.88-2.22,14.1,0,22.33-.15-.63,2.44,1.03,2.54.47.15.15,1.19-1.51,1.1-1.27.95-3.99.58-3.64,1.7-7.56,2.87-5.84,3.04-12.39,3.04-19.2,2.16-1.92,4.96-2.24,6.96-4.55l.15.15c2.48-1.19,3.6-4.09,4.79-6.32.49-5.84-3.12-10.88-7.44-15.19h.02ZM478.85,32.31c-.39.07-.97-.15-1.29.24-2.16-4.96-2.8-10.48-4.07-15.76-.17-.8.95-2,0-2.87,1.04-.73,2.31-.88,3.68-.8-.88,1.92-2.72,3.43-2.48,5.76-.88,5.11,3.28,8.23,5.52,11.92-.39.49-.56,1.29-1.36,1.51Z"/>
          <path class="cls-1" d="M456.31,29.31c-1.19.07-2.48,1.29-3.53.73,2.41-1.29,2.24-4.4,4.65-5.52l-.17-.24.32-.39c-.63-.95-1.53-1.68-2.24-2.87l1.12-1.12c1.19.39.56-1.12,1.51-1.12-.56-1.51,1.12-2.07.56-3.53-1.75-1.51-4.55-.24-6.88-.32-.88.39-1.68,1.04-2.72,1.29-.63.07-.24-.73-.32-1.12-.88-1.6-.8-3.84-.8-5.6l-.95-1.29c-.88-.32-4.83.52-5.39.84l-1.12,1.29c-.49.39.17,1.27-.63,1.6.39,2.41-1.31,2.8.54,4.79-3.68,1.04-3.45,2.16-7.28,2.8-.17,1.36.39,4.76.88,5.95,1.85,2.98,4.18,1.47,6.51.07-1.27,2.46-3.45,5.58-1.77,8.25-2.87,5.35-5.93,4.55-10.48,7.03l-.8-.39v.17c-.39.39-.8,1.04-.39,1.51,1.51,2,4.16,2.56,6.4,2.56,2.09-1.75,4.79-2.87,7.44-3.68,3.68-.56,6.55-3.68,10.39-3.43l-.95.97c3.6-1.19,6.72-4.31,10.88-3.43.73-.39,1.53-.88,2.16-.8.49-.73.73-1.85,1.12-2.72-1.29-3.04-5.35-2.07-8-2.24l-.04-.04ZM445.12,28.92l-.17-.24-.39.41c-.32,0-.07-.63-.17-.95,1.04-1.68,1.68-3.68,3.28-4.96.8,0,1.85.49,2.24.56-1.36,1.85-2.87,3.75-4.79,5.2v-.02Z"/>
          <path class="cls-1" d="M458.55,44.85c.07-1.83-2.24-2.41-3.82-3.69l-8.28.45c-1.92.73-2.89,3.12-4.57,3.9-.17-.15-.49-.24-.39-.56-1.44.39-2.89-.69-4.25-.69,1.19,3.75.09,5.48-.47,8.92-.56.56,1.23,2.07.11,2.56.07.39-.17.95.24,1.27,1.04.56,1.04,1.92,1.51,2.87.24.49,1.04-.07.95.63.88-.32,2.91.73,3.54-.3,2.87.95.11,1.29,2.11,2.72l2.57-.6c1.36,0,3.02-.43,4.53-.43,1.6-1.29,1.77-.9,2.89-2.22l.9-2.22c.24-.71.43-1.31.26-1.87,1.75-1.92,1.21-8.53,2.18-10.78l-.02.04ZM448.96,53.86c-1.19,1.19-3.19.32-4.55,1.12.07-.97-.95-5.13,1.19-5.28-.07-1.68,2-1.1,3.04-2h.32v6.16Z"/>
          <path class="cls-1" d="M51.97,55.74c.06.47-.06.58-.41.71v-.71h.41Z"/>
          <path class="cls-1" d="M53.09,57.16c-.58.47-.3-.52-.71-.71v-.52c.24.41.06,1.12.71,1.23Z"/>
        </g>
      </g>
      <g id="_レイヤー_2-2" data-name=" レイヤー 2-2">
        <g>
          <g>
            <polygon class="cls-1" points="204.05 101.71 204.05 109.67 196.18 109.67 196.18 101.71 188.26 101.71 188.26 125.29 196.18 125.29 196.18 115.68 204.05 115.68 204.05 125.29 211.96 125.29 211.96 101.71 204.05 101.71"/>
            <polygon class="cls-1" points="265.65 101.76 257.96 101.76 250.04 101.76 242.21 101.76 242.21 107.77 250.04 107.77 250.04 125.29 257.96 125.29 257.96 107.77 265.65 107.77 265.65 101.76"/>
            <polygon class="cls-1" points="301.43 118.27 301.43 101.73 293.52 101.73 293.52 125.32 295.95 125.32 301.43 125.32 313.52 125.32 313.52 118.27 301.43 118.27"/>
            <polygon class="cls-1" points="276.16 118.99 276.16 115.67 288.32 115.67 288.32 110.38 276.16 110.38 276.16 108.05 289.29 108.05 289.29 101.76 276.16 101.76 276.16 101.73 268.24 101.73 268.24 125.32 274.94 125.32 276.16 125.32 290.01 125.32 290.01 118.99 276.16 118.99"/>
            <path class="cls-1" d="M228.13,101.41c-9.46,0-13.51,5.84-13.51,12.09,0,5.46,3.72,12.09,13.51,12.09s13.51-6.63,13.51-12.09c0-6.26-4.04-12.09-13.51-12.09ZM228.13,119.56c-3.05,0-5.33-2.14-5.33-6.05s2.28-6.05,5.33-6.05,5.33,2.04,5.33,6.05-2.28,6.05-5.33,6.05Z"/>
          </g>
          <g>
            <path class="cls-1" d="M337.78,90.56s1.69-5.54,3.94-7.47,2.57-1.76,3.45-1.53,2.01,1.69,2.81,2.89c0,0,1.23,2.81,1.31,3.61s.18,1.76,0,2.48-.54,4.05-.36,5.48.47,2.75.46,3.76-1.02,2.95-1.56,3.81-.67,2.29-.79,3.51-.23,1.92-.64,2.55-1.45,2.96-.87,3.54,1.28,1.16,2.32.64,4.41-2.79,5.86-3.89,2.44-1.74,1.74-2.9-1.74-1.22-1.97-1.92,0-1.28.52-1.62.95-1.03,1.11-2.97,1.1-6.35,1.52-10.58.93-8.64,1.95-10.08,2.88-2.03,4.32-1.18c1.44.85,3.31,2.23,3.41,3.84s-.56,6.2-.47,9.26c.1,3.06-.48,5.53-.86,6.58s-1.14,3.6-1.14,4.12-.04,2.6,1.47,1.89,3.87-2.65,5.3-3.87,2.32-2.5,4.68-2.5,3.93.19,4.45,1.47.59,2.69-1.03,4.19-3.48,3.77-6.79,5.66-4.17,1.89-4.74,2.22-3.16.63-3.09,3.1-.27,5.62.27,6.16,1.81.8,3.28.87,6.23.07,8.24-.4,3.99-.7,4.52-1.09,1.36-.72,1.36-1.98-.53-2.91,0-3.87,1.06-1.11,1.68-1.16,1.76.18,2.15,1.63.64,2.65.64,3.21,0,2.73-.8,4.41-.96,3.86-4.18,5.06-4.5,1.29-8.75,1.29-8.51.8-10.84.48-4.01-.75-4.71-1.86-1.91-2.47-2.19-4.01.18-4.1.1-4.24-.51-.83-.98-.65-7.35,8.22-8.49,9.12-2.49,1.74-4.3,2.04-1.73.84-1.73.84c0,0-.76.63-1.27.57s-1.02-.44-1.4-.76-2.29-.57-3.24-.38-1.21.7-1.97.7-3.18-.25-4.33-1.15-1.8-2.19-.63-3.09,3.8-2.26,6.06-4.01,3.94-3.57,3.94-5.33-.8-2.84-2.77-3.72-5.61-2.88-5.62-4.38.36-2.48,2.26-3.28,6.24-1.78,7.42-2.77,3.01-2.34,3.01-4.45.3-4.23-1.16-5.33-1.64-1.78-1.84-2.57h0Z"/>
            <path class="cls-1" d="M402.03,111.46s.98.8,1.07,1.37-.23,1.82-.96,2.4-1.41,2.2-2.39,2.2-1.96-.4-2.61-.99-.9-2.62,0-3.86,2.38-2.81,4.24-3.68,4.53-1.45,7.19-1.45,4.51.32,5.68.87,2.94,1.97,3.35,2.97.53,1.66.67,2.94c.11,1-.14,2.91-.95,4.85s-3.41,4.68-3.74,5.95-.9,1.51-1.05,1.71-1.03,1.84-.03,2.22,1.29.56,1.5.73,1.02.81,1.95.64,3.18-1.31,4.11-2.19,3.87-3.81,5.11-6.84c1.24-3.02,1.82-4.97,1.87-6.79.06-2.67.14-5.4-.84-7.29-1.19-2.28-5.16-5.73-8.36-5.84s-8.42-.89-12.57.23-8.97,3.81-11,6.56-4.15,6.17-4.27,7.19-.5,2.89,0,3.54,1.84,2.41,2.7,3.46,2.35,2.98,3.04,3.13c.74.15,1.81,0,2.63,0s2.35,1.08,3.6,1.08,4.96-2.02,5.85-3.18,2.88-1.89,3.37-3.3c.7-2.02.81-4.11-1.35-6.12-1.34-1.24-3.46-2.84-5.06-3.35-1.69-.55-2.82.02-2.75.84h0Z"/>
            <g>
              <path class="cls-1" d="M440.39,104.64s-5.45-1.19-7-1.96-1.95-2.35-1.27-3.28,2.02-1.49,3.16-1.61,6.21.11,7.31,0,2.94.17,3.22-1.84.76-4.54.89-5.67.8-2.99.8-3.65-1.09-2.63-1.03-3.63.1-2.88,1.03-4.47,2.06-2.52,3.39-2.59,2.86.33,3.39.93.8,1.86.8,2.79v8.57s-.13,1.48-.4,2.07c-.27.59-.5,1.68-.3,2.1s.51,1.13,1.31.66,1.6-.93,2.24-.96c.52-.03,1.09-.17,1.56.3s1.97,2.02,2.02,2.35.14,1.74-.47,2.11-2.68,1.27-3.8,1.41-2.75.05-3.71,1.5c-.68,1.03-.98,3.38-.43,3.75.56.37,1.29.37,1.5.04s1.16-.17,1.61-.05,2.85,2.63,3.2,3.1,1.81,1.87,1.57,2.5-.62,1.59-1.1,2.13-.92,1.76-2.19,2-2.34.3-2.87-.34-.78-1.03-1.31-1.03-1.22.7-1.61,1.53c-.42.88-.96,2.76-1.04,6.17-.08,3.41.45,7.38.37,7.9s-.37,2.67-.75,2.9-.63.52-1.05,1.29c-.17.32.3,1.2-1.05,1.27s-4.27.23-4.79-.97-.52-3.81-.68-8.91c-.15-5.09-.08-5.95-.08-5.95,0,0-.37-1.68-1.37-.88-.56.45-1.03.8-1.65.86-1.16.1-2.97-.1-3.64-.76-.62-.62-.33-2.42.22-2.99.43-.45,3-2.83,4.41-3.51s2.1-.96,2.47-2.33.56-2.67-.18-2.73-2.19.07-2.73-.09l.03-.03Z"/>
              <path class="cls-1" d="M471.03,90.58s-.17.85-.59.85-1.29.15-1.45-.53-.15-1.33.2-1.88.94-1.48,1.42-2.21,1.09-1.6,1.66-1.95,1.69-.48,2.34-.32,2.11.57,2.88,1.56,1.09,1.69,1.25,2.21.22,2.09.18,2.81.05,1.32,0,2.21c-.03.52-.35,1.65-.35,2.09s-.14,1.42.7,1.36,2.09-.13,2.69,0,1.95.99,2.12,1.76.4,1.23.17,1.76-.66,1.29-1.46,1.79-1.99,1.88-3.21,2.33-1.82.83-2.09,2.54-.47,4.61-.47,5.31-.07,2.08.97,2.08,4.37-.35,5.4-.42,3.33.14,3.54,1.11.42,3.5-.28,4.49-1.66,2.51-3.33,2.93-7.56.49-10.61.7-7.14,1.25-9.29,1.39-4.23.21-5.61-.76-3.47-2.68-3.61-3.47.07-2.01,1.04-2.28,3.68-1.59,5.2-1.73,2.98-.21,4.44-.35,2.35-.35,2.77-1.53.49-2.91.7-4.09.49-2.63-.43-2.6-3.25.17-4.19.1-3.06-.67-4.06-2.33.68-2.9,2.29-3.61,3.28-.68,5.12-1.03,2.87-.21,3.57-2.75-.1-4.39.44-5.69.83-1.66.83-1.66c0,0-.27-1.06-.86-.2l-.03.03Z"/>
            </g>
          </g>
        </g>
      </g>
    </g>
  </g>
</svg>